<svg width="32" height="24" viewBox="0 0 32 24" fill="none" xmlns="http://www.w3.org/2000/svg">
<path d="M14.036 14.4445H12.681V13.0893C12.681 12.5715 12.2612 12.1517 11.7434 12.1517C11.2256 12.1517 10.8058 12.5715 10.8058 13.0893V14.4445H9.45065C8.93285 14.4445 8.51306 14.8643 8.51306 15.3821V19.9673C8.51306 20.4851 8.93285 20.9049 9.45065 20.9049H10.8058V22.3365C10.8058 22.8543 11.2256 23.2741 11.7434 23.2741C12.2612 23.2741 12.681 22.8543 12.681 22.3365V20.9049H14.036C14.5538 20.9049 14.9736 20.4851 14.9736 19.9673V15.3821C14.9736 14.8643 14.5538 14.4445 14.036 14.4445ZM22.5492 9.85889H21.1942V8.50369C21.1942 7.98589 20.7744 7.5661 20.2566 7.5661C19.7388 7.5661 19.319 7.98589 19.319 8.50369V9.85889H17.9638C17.446 9.85889 17.0263 10.2787 17.0263 10.7965V15.3817C17.0263 15.8995 17.446 16.3193 17.9638 16.3193H19.319V22.3366C19.319 22.8544 19.7388 23.2742 20.2566 23.2742C20.7744 23.2742 21.1942 22.8544 21.1942 22.3366V16.3193H22.5492C23.067 16.3193 23.4868 15.8995 23.4868 15.3817V10.7965C23.4868 10.2787 23.067 9.85889 22.5492 9.85889ZM31.0624 3.01892H29.7073V1.66366C29.7073 1.14586 29.2875 0.726074 28.7697 0.726074C28.2519 0.726074 27.8321 1.14586 27.8321 1.66366V3.01886H26.477C25.9592 3.01886 25.5394 3.43865 25.5394 3.95645V10.7964C25.5394 11.3142 25.9592 11.734 26.477 11.734H27.8321V15.458C27.8321 15.9758 28.2519 16.3956 28.7697 16.3956C29.2875 16.3956 29.7073 15.9758 29.7073 15.458V11.734H31.0624C31.5802 11.734 32 11.3142 32 10.7964V3.95651C32 3.43871 31.5802 3.01892 31.0624 3.01892ZM5.5229 7.48991H4.1679V1.66373C4.1679 1.14593 3.74811 0.726137 3.23031 0.726137C2.71251 0.726137 2.29272 1.14593 2.29272 1.66373V7.48991H0.93759C0.41979 7.48991 0 7.9097 0 8.4275V15.458C0 15.9758 0.41979 16.3956 0.93759 16.3956H2.29272V17.7508C2.29272 18.2686 2.71251 18.6884 3.23031 18.6884C3.74811 18.6884 4.1679 18.2686 4.1679 17.7508V16.3956H5.52297C6.04077 16.3956 6.46056 15.9758 6.46056 15.458V8.4275C6.46049 7.9097 6.04077 7.48991 5.5229 7.48991Z" fill="#1111FF"/>
</svg>
