<svg width="28" height="28" viewBox="0 0 28 28" fill="none" xmlns="http://www.w3.org/2000/svg">
<path d="M12.8577 20.9412C12.5182 20.3777 13.3562 19.8632 13.7077 20.4162L14.3877 21.5162L16.1922 20.0462L15.0772 13.8472L12.0077 17.1822L9.39815 17.4767C9.25315 17.4917 9.11815 17.5767 9.03815 17.6967L7.55815 19.9417L8.78315 22.4907C8.82815 22.5857 8.84315 22.6957 8.82315 22.8007L8.43815 24.9107C8.30815 25.5537 7.34365 25.3852 7.45315 24.7307L7.81315 22.7807L6.79815 20.6857L3.05915 22.1307C2.94915 22.1757 2.85915 22.2507 2.80415 22.3557L0.0696515 27.2552C-0.123349 27.5697 0.134651 28.0112 0.504651 28.0002H11.3827L13.7027 22.3107L12.8577 20.9412Z" fill="#1111FF"/>
<path d="M18.8668 16.0016C18.8375 15.9189 18.7834 15.8473 18.7118 15.7966L16.0718 13.7271L17.2268 20.1611C17.2618 20.3361 17.1918 20.5211 17.0518 20.6361L14.6773 22.5711L12.4628 28.0001H19.8668C20.0218 28.0001 20.1668 27.9301 20.2618 27.8101C20.3568 27.6901 20.3918 27.5351 20.3568 27.3851L19.6118 24.2651L20.8868 21.3111C20.9418 21.1861 20.9418 21.0461 20.8918 20.9211L18.8668 16.0016ZM8.3533 15.1021C8.5733 15.1761 8.8163 15.0781 8.9383 14.8771C10.297 12.5269 11.9044 10.3296 13.7328 8.32305L14.3428 8.92805C14.7078 9.30405 15.3113 9.29455 15.6773 8.92805L16.0173 8.58805C16.2293 8.37305 16.7243 7.88305 16.9323 7.67305C17.2883 7.31555 17.2993 6.70605 16.9273 6.34305L16.3223 5.73305C18.3289 3.90486 20.5262 2.29763 22.8763 0.939053C23.3263 0.694053 23.1013 -0.0639472 22.5813 0.0040528C18.8224 0.324422 15.2977 1.96321 12.6301 4.63081C9.96246 7.29842 8.32367 10.8231 8.0033 14.5821C7.9833 14.8171 8.1283 15.0321 8.3533 15.1021ZM27.4403 16.9016L23.5523 13.2246L17.9673 7.94305C17.8823 8.10305 17.7673 8.25305 17.6373 8.38305C17.3298 8.66105 16.3043 9.79105 15.9473 9.96805L18.6668 12.8471L24.9008 19.4411C25.2358 19.7961 25.6908 19.9911 26.1758 20.0011C27.7768 20.0661 28.6273 17.9771 27.4403 16.9016Z" fill="#1111FF"/>
</svg>
