<svg width="322" height="342" viewBox="0 0 322 342" fill="none" xmlns="http://www.w3.org/2000/svg">
<path d="M125.019 337.983C182.957 337.983 229.924 310.796 229.924 277.26C229.924 243.723 182.957 216.537 125.019 216.537C67.0821 216.537 20.1147 243.723 20.1147 277.26C20.1147 310.796 67.0821 337.983 125.019 337.983Z" fill="#3E64F0"/>
<path d="M30.5335 329.165L12.9126 339.366L90.5094 216.652L136.326 236.063L202.509 131.398L221.2 139.317L280.377 45.7348L297.993 35.5334L221.2 156.984L202.509 149.06L136.326 253.73L90.5094 234.315L30.5335 329.165Z" fill="#E3DFEA"/>
<path d="M35.0686 331.803L17.4521 342L95.049 219.286L140.861 238.697L207.045 134.032L225.735 141.951L284.912 48.3685L302.533 38.1716L225.735 159.618L207.045 151.699L140.861 256.363L95.049 236.953L35.0686 331.803Z" fill="url(#paint0_linear_70_573)"/>
<path d="M285.081 28.1038L302.533 38.1716L284.912 48.3685L225.735 141.951L207.045 134.032L140.861 238.697L95.0491 219.286L17.4523 342L0 331.937L77.5968 209.223L123.409 228.633L189.592 123.969L208.283 131.888L267.46 38.3051L285.081 28.1038Z" fill="url(#paint1_linear_70_573)"/>
<path d="M215.751 68.433V88.4085L302.493 38.0692V124.689L321.973 113.54V31.9787V7.04709V6.94922L215.751 68.433Z" fill="url(#paint2_linear_70_573)"/>
<path d="M215.778 68.4552L203.016 61.3859L309.238 0L322 7.0693L215.778 68.4552Z" fill="url(#paint3_linear_70_573)"/>
<path d="M215.751 88.364L203.016 81.317V61.3904L215.751 68.4374V88.364Z" fill="url(#paint4_linear_70_573)"/>
<path d="M302.498 124.338L289.407 117.139V58.6096L302.498 38.2292V124.338Z" fill="url(#paint5_linear_70_573)"/>
<path d="M179.99 95.3175L181.933 92.537L172.113 86.9447C171.927 86.8335 171.745 86.7312 171.559 86.6288C162.919 81.8997 150.335 83.0697 136.321 91.1667C110.274 106.244 89.1562 139.66 89.1562 165.752C89.1562 176.715 92.8792 184.651 99.1227 189.056C100.052 189.709 101.034 190.282 102.06 190.769L110.571 195.751L112.457 193.029C119.45 193.095 127.597 190.742 136.299 185.706C162.347 170.628 183.46 137.235 183.46 111.12C183.46 104.829 182.226 99.5262 179.99 95.3175Z" fill="#FF9D4D"/>
<path d="M159.844 84.5869C163.786 84.5122 167.683 85.4381 171.173 87.2785H171.213C171.386 87.3719 171.55 87.4698 171.728 87.5721L180.824 92.7551L179.369 94.8638L179.107 95.242L179.324 95.6513C181.565 99.8688 182.706 105.074 182.706 111.116C182.706 136.95 161.717 170.112 135.922 185.047C127.757 189.768 119.748 192.268 112.75 192.268H112.062L111.823 192.637L110.336 194.786L102.411 190.137H102.384H102.358C101.37 189.66 100.421 189.103 99.5222 188.473L99.4867 188.446C94.2461 184.732 91.0068 178.521 90.1282 170.482C90.0927 170.184 90.0617 169.881 90.0395 169.592C89.933 168.382 89.8797 167.105 89.8797 165.806C89.8779 163.497 90.0262 161.191 90.3235 158.901C90.359 158.639 90.3945 158.372 90.4344 158.105C90.9202 154.836 91.6395 151.607 92.5865 148.442L92.8084 147.703C93.7564 144.642 94.8733 141.636 96.1542 138.699L96.4559 138.009C97.7117 135.175 99.145 132.319 100.72 129.53C100.84 129.312 100.96 129.085 101.089 128.876C102.642 126.157 104.346 123.457 106.156 120.868L106.6 120.249C108.437 117.642 110.398 115.097 112.444 112.686L112.936 112.103C115.058 109.625 117.294 107.236 119.593 104.985L120.156 104.438C122.572 102.125 125.107 99.9391 127.749 97.8891L128.396 97.3953C131.038 95.3662 133.802 93.5015 136.672 91.8119L137.222 91.496L137.981 91.0734C141.368 89.1767 144.936 87.6238 148.631 86.4376L148.742 86.402L149.723 86.1084C153.004 85.1345 156.404 84.6224 159.826 84.5869H159.844ZM159.844 83.8306C156.354 83.8654 152.886 84.388 149.541 85.3832L148.547 85.6769C144.76 86.882 141.105 88.4664 137.635 90.406L136.863 90.8509L136.313 91.1668C133.421 92.8486 130.635 94.7073 127.97 96.7324L127.318 97.2306C124.654 99.2962 122.099 101.5 119.664 103.833L119.1 104.38C116.77 106.645 114.529 109.038 112.4 111.534C112.231 111.725 112.067 111.921 111.898 112.117C109.83 114.572 107.865 117.126 106.019 119.747C105.872 119.951 105.726 120.16 105.575 120.369C103.747 123.003 102.025 125.708 100.472 128.449C100.343 128.667 100.219 128.893 100.099 129.107C98.5149 131.919 97.0772 134.779 95.8036 137.649C95.7016 137.885 95.5951 138.116 95.4975 138.347C94.2061 141.309 93.0802 144.34 92.125 147.428C92.0496 147.677 91.9742 147.926 91.9032 148.175C90.9418 151.38 90.2136 154.651 89.7244 157.963C89.6845 158.234 89.649 158.505 89.6135 158.772C89.3039 161.092 89.1453 163.43 89.1387 165.77C89.1387 167.105 89.1964 168.382 89.3029 169.623C89.3295 169.935 89.3605 170.246 89.396 170.553C90.3279 179.059 93.8068 185.337 99.1051 189.074C100.042 189.72 101.03 190.287 102.06 190.769L110.571 195.751L112.457 193.029H112.75C119.681 193.029 127.722 190.671 136.299 185.706C162.342 170.629 183.46 137.235 183.46 111.12C183.46 104.812 182.226 99.504 179.99 95.2998L181.934 92.5371L172.118 86.9448L171.563 86.6289C167.962 84.727 163.94 83.7689 159.871 83.8439L159.844 83.8306Z" fill="#FFE840"/>
<path d="M174.21 165.352C195.027 137.604 199.211 105.539 183.555 93.7322C167.898 81.9252 138.331 94.8474 117.513 122.595C96.6961 150.342 92.5123 182.407 108.169 194.214C123.825 206.021 153.393 193.099 174.21 165.352Z" fill="#FFD071"/>
<path d="M174.21 165.352C195.027 137.604 199.211 105.539 183.555 93.7322C167.898 81.9252 138.331 94.8474 117.513 122.595C96.6961 150.342 92.5123 182.407 108.169 194.214C123.825 206.021 153.393 193.099 174.21 165.352Z" fill="#FFE840"/>
<path d="M147.069 185.283C136.064 191.654 125.716 193.349 117.933 190.052C110.15 186.756 105.863 178.859 105.863 167.808C105.863 156.757 110.15 143.917 117.933 131.607C125.716 119.297 136.064 109.011 147.069 102.641C158.074 96.2697 168.426 94.5969 176.209 97.8757C183.993 101.155 188.275 109.069 188.275 120.12C188.275 131.171 183.988 144.011 176.209 156.321C168.431 168.631 158.078 178.912 147.069 185.283ZM147.069 104.932C125.601 117.362 108.131 144.972 108.131 166.513C108.131 188.055 125.601 195.431 147.069 183.01C168.537 170.588 186.007 142.97 186.007 121.433C186.007 99.8955 168.542 92.5059 147.069 104.932Z" fill="#FF9D4D"/>
<path d="M152.837 136.986V143.286C152.707 143.348 152.574 143.419 152.438 143.499L148.99 145.479V139.611L150.929 138.485C151.633 138.079 152.276 137.574 152.837 136.986Z" fill="#D1975D"/>
<path d="M152.061 153.812C152.328 153.656 152.588 153.487 152.837 153.304V166.131L148.99 168.355V155.587L152.061 153.812Z" fill="#D1975D"/>
<path d="M162.48 137.916C161.205 136.981 159.473 136.823 157.284 137.44C159.011 135.711 160.399 133.672 161.375 131.429C162.25 129.522 162.727 127.455 162.777 125.356C162.796 124.266 162.584 123.183 162.156 122.18C161.811 121.29 161.185 120.537 160.373 120.036C159.562 119.536 158.609 119.315 157.661 119.408C156.378 119.524 155.141 119.945 154.053 120.636L152.837 121.335V115.106L148.99 117.331V123.559L144.313 126.268V120.04L140.461 122.264V128.493L133.592 132.47V170.838L140.461 166.834V173.284L144.313 171.06V164.609L152.061 160.125C152.323 159.969 152.58 159.818 152.837 159.657C154.245 158.787 155.581 157.803 156.831 156.717C158.279 155.466 159.597 154.071 160.762 152.553C161.852 151.138 162.748 149.584 163.425 147.93C164.059 146.401 164.389 144.763 164.397 143.108C164.394 140.592 163.755 138.862 162.48 137.916ZM154.244 128.204C155.052 128.598 155.455 129.534 155.455 131.011C155.445 132.552 154.982 134.056 154.124 135.335C153.75 135.929 153.316 136.482 152.828 136.986C152.267 137.574 151.624 138.079 150.92 138.485L144.304 142.32L141.016 144.22V134.557L151.244 128.635C151.732 128.338 152.268 128.13 152.828 128.021C153.308 127.93 153.803 127.994 154.244 128.204ZM156.529 148.202C156.276 148.967 155.933 149.701 155.509 150.386C155.074 151.09 154.558 151.741 153.973 152.326C153.62 152.681 153.241 153.008 152.837 153.304C152.587 153.487 152.328 153.656 152.061 153.812L141.025 160.2V150.106L144.313 148.202L152.438 143.499C152.577 143.419 152.71 143.348 152.837 143.286C153.266 143.064 153.733 142.925 154.213 142.876C154.7 142.822 155.191 142.925 155.615 143.17C156.032 143.435 156.359 143.819 156.556 144.273C156.805 144.832 156.924 145.441 156.906 146.053C156.897 146.785 156.77 147.51 156.529 148.202Z" fill="#FF9D4D"/>
<path d="M150.561 97.9023L150.184 98.5563L136.85 90.8375L137.622 90.3926L150.561 97.9023Z" fill="#FFE840"/>
<path d="M138.78 102.988L138.403 103.659L127.309 97.2351L127.961 96.7368L138.78 102.988Z" fill="#FFE840"/>
<path d="M130.579 110.146L130.202 110.8L119.086 104.367L119.65 103.819L130.579 110.146Z" fill="#FFE840"/>
<path d="M122.375 117.304L121.998 117.958L111.885 112.112C112.053 111.916 112.218 111.721 112.386 111.529L122.375 117.304Z" fill="#FFE840"/>
<path d="M117.742 126.527L117.365 127.185L105.57 120.356C105.712 120.147 105.859 119.938 106.014 119.733L117.742 126.527Z" fill="#FFE840"/>
<path d="M114.764 136.772L114.387 137.426L100.094 129.094C100.214 128.871 100.338 128.649 100.467 128.435L114.764 136.772Z" fill="#FFE840"/>
<path d="M108.947 145.248L108.57 145.906L95.4927 138.343L95.7989 137.645L108.947 145.248Z" fill="#FFE840"/>
<path d="M106.733 155.876L106.355 156.53L91.8984 148.148C91.9694 147.899 92.0449 147.65 92.1203 147.401L106.733 155.876Z" fill="#FFE840"/>
<path d="M102.997 165.615L102.619 166.273L89.6089 158.741C89.6444 158.474 89.6799 158.203 89.7198 157.931L102.997 165.615Z" fill="#FFE840"/>
<path d="M103.556 177.845L103.179 178.503L89.3915 170.522C89.356 170.215 89.325 169.903 89.2983 169.592L103.556 177.845Z" fill="#FFE840"/>
<path d="M161.89 92.5371L161.513 93.1955L148.538 85.6813L149.532 85.3877L161.89 92.5371Z" fill="#FFE840"/>
<path d="M117.693 174.294L117.516 174.05C117.281 173.728 116.954 173.486 116.577 173.357C116.201 173.228 115.794 173.218 115.412 173.329C115.337 173.35 115.268 173.388 115.209 173.44C115.15 173.492 115.104 173.556 115.074 173.629C115.043 173.701 115.03 173.779 115.034 173.857C115.038 173.936 115.06 174.012 115.097 174.081L116.016 175.78C116.056 175.853 116.112 175.915 116.18 175.963L119.442 178.223C119.546 178.296 119.674 178.328 119.801 178.313C119.927 178.298 120.044 178.238 120.129 178.143L121.052 177.119C121.104 177.062 121.143 176.994 121.165 176.92C121.188 176.846 121.194 176.768 121.183 176.692C121.172 176.615 121.144 176.542 121.101 176.478C121.059 176.413 121.003 176.359 120.937 176.319L117.831 174.432C117.776 174.396 117.73 174.349 117.693 174.294Z" fill="#FFD0A6"/>
<path d="M150.113 126.131L151.062 123.372L153.845 115.302L157.838 119.137L159.529 126.349C159.733 127.225 159.667 128.143 159.34 128.981C159.012 129.819 158.439 130.537 157.696 131.042L153.259 133.173L150.113 126.131Z" fill="#FFD0A6"/>
<path d="M22.5197 138.245L74.495 175.754C75.7704 176.674 76.8122 177.882 77.5364 179.28C78.2606 180.679 78.6469 182.228 78.6642 183.803C78.6815 185.379 78.3292 186.936 77.6358 188.35C76.9425 189.764 75.9274 190.995 74.6725 191.943L41.5073 217.022L31.7451 209.129C31.7451 209.129 52.1571 188.353 50.8747 187.53C50.147 187.085 34.8335 175.638 21.5878 165.73C19.4266 164.114 17.6879 161.996 16.5201 159.56C15.3523 157.123 14.7901 154.439 14.8817 151.737C14.9733 149.035 15.7158 146.395 17.0459 144.043C18.3759 141.692 20.254 139.698 22.5197 138.232V138.245Z" fill="url(#paint6_linear_70_573)"/>
<path d="M47.3781 216.59L44.5248 219.642C43.7968 220.416 43.3913 221.439 43.3913 222.503C43.3913 223.566 43.7968 224.59 44.5248 225.363L48.3676 229.425C48.9108 229.998 49.3046 230.697 49.5144 231.459C49.7241 232.221 49.7433 233.023 49.5702 233.794C49.4011 234.553 49.0513 235.259 48.5507 235.853C48.0502 236.447 47.4137 236.911 46.6956 237.204C45.9775 237.498 45.1992 237.613 44.4271 237.54C43.655 237.467 42.9121 237.207 42.2618 236.784L40.1229 235.391C36.1039 232.776 32.7831 229.216 30.4494 225.021L23.9974 213.396C23.5086 212.518 23.2323 211.537 23.1906 210.532C23.1489 209.527 23.3431 208.527 23.7575 207.611C24.1719 206.695 24.795 205.89 25.5765 205.259C26.3581 204.629 27.2763 204.191 28.2573 203.982L41.7115 201.112L47.3781 216.59Z" fill="#281A10"/>
<path d="M75.4357 157.309L61.3958 223.975L40.7752 277.451L20.8823 268.713C24.1268 251.074 29.6801 233.942 37.3983 217.76L41.9689 148.718L42.0265 147.917L75.4357 157.309Z" fill="url(#paint7_linear_70_573)"/>
<path d="M68.9305 156.294L54.8639 222.961L34.8557 274.844L20.8823 268.713C24.1268 251.074 29.6801 233.942 37.3983 217.76L38.3568 147.703L68.9305 156.294Z" fill="url(#paint8_linear_70_573)"/>
<path d="M86.9198 71.3604C98.457 77.7179 103.338 92.9598 99.2602 105.497C92.3512 126.758 83.645 159.956 73.7008 179.233C73.0261 180.554 71.9194 181.604 70.5658 182.205C69.2121 182.807 67.6934 182.924 66.2637 182.538L55.7027 179.673C40.1718 175.451 34.6472 163.657 22.1293 153.514C19.7338 151.568 18.0351 148.893 17.2898 145.894C16.5445 142.894 16.7931 139.733 17.9981 136.888L36.2935 102.694L43.9702 60.5629C44.7257 58.2906 45.993 56.2232 47.674 54.5211C49.3549 52.819 51.4043 51.5279 53.6631 50.7479C55.922 49.9679 58.3297 49.72 60.6995 50.0233C63.0694 50.3266 65.3377 51.1731 67.3287 52.4971L86.9198 71.3604Z" fill="url(#paint9_linear_70_573)"/>
<path d="M102.229 95.9583L110.846 139.397L95.9276 132.577L149.838 124.845C150.853 124.701 151.886 124.92 152.755 125.465C153.624 126.009 154.274 126.844 154.59 127.821L154.666 128.053C155.052 129.252 154.957 130.555 154.402 131.686C153.847 132.816 152.876 133.687 151.692 134.112L105.756 150.573C104.453 151.425 102.964 151.948 101.415 152.1C99.8663 152.251 98.3041 152.026 96.8608 151.443C95.4176 150.86 94.1359 149.937 93.1244 148.752C92.113 147.566 91.4017 146.153 91.0509 144.634L90.8424 143.744L80.8937 100.545C80.5677 99.1315 80.5255 97.667 80.7694 96.2369C81.0133 94.8068 81.5385 93.4396 82.3144 92.2149C83.0904 90.9902 84.1015 89.9325 85.2891 89.1034C86.4766 88.2742 87.8168 87.6902 89.2316 87.3853C90.6473 87.0808 92.1092 87.0618 93.5323 87.3292C94.9554 87.5967 96.3112 88.1453 97.5207 88.9431C98.7303 89.741 99.7695 90.7721 100.578 91.9765C101.386 93.1808 101.947 94.5344 102.229 95.9583Z" fill="url(#paint10_linear_70_573)"/>
<path d="M68.3628 54.0185L73.6877 47.9769V34.5057C72.937 30.7228 73.3398 26.8009 74.8436 23.2508C76.3473 19.7006 78.8824 16.6867 82.1187 14.6013C85.1441 12.651 88.6528 11.5868 92.2491 11.5286C95.8455 11.4705 99.3865 12.4207 102.473 14.2721L110.048 18.8189C110.8 19.2701 111.455 19.8681 111.974 20.5774C112.492 21.2867 112.863 22.093 113.066 22.9486C113.268 23.8042 113.297 24.6917 113.151 25.5588C113.006 26.4259 112.688 27.255 112.218 27.9969L112.164 28.0815C111.31 29.4192 110.708 30.9031 110.389 32.4592L108.921 39.702C108.854 42.3842 108.104 45.0047 106.742 47.3141L105.153 50.0101C103.635 52.026 101.384 53.3581 98.8896 53.7157C96.3956 54.0733 93.8618 53.4273 91.8411 51.9187L84.1289 69.4028L68.3628 54.0185Z" fill="#FFD0A6"/>
<path d="M110.598 31.5559L103.254 34.4165C101.84 36.6863 100.849 39.1947 100.33 41.8195C99.5487 46.0193 90.0349 48.5952 90.0349 48.5952L83.645 52.7416C82.9755 53.1751 82.2094 53.4357 81.4149 53.5001C80.6205 53.5646 79.8226 53.4308 79.0922 53.1108L74.0469 50.8864C72.6939 50.2959 71.5344 49.3348 70.7016 48.1134C69.8688 46.8921 69.3965 45.46 69.3388 43.9817C69.2368 41.2456 69.2102 38.1047 69.5208 36.6143C69.8314 35.1239 69.574 31.6805 69.2457 28.7442C68.8003 24.9177 69.6757 21.0536 71.7262 17.7955C72.9686 15.8513 74.4729 13.9071 76.0571 12.8038C80.0507 10.0321 81.9632 6.31732 89.6799 7.11367C97.3965 7.91002 108.969 11.3357 111.308 14.005C113.646 16.6743 112.856 17.5641 114.094 22.6848C115.333 27.8055 110.598 31.5559 110.598 31.5559Z" fill="#89603E"/>
<path d="M67.1421 53.2711L71.2068 50.7886L86.4359 64.1486L84.8784 70.2036L67.1421 53.2711Z" fill="url(#paint11_linear_70_573)"/>
<path d="M98.7498 45.4099L97.8623 42.2378C97.5118 40.9654 95.8877 40.1424 94.5343 40.5517C94.1714 40.6392 93.8472 40.8437 93.6115 41.1339C93.3759 41.424 93.2417 41.7837 93.2297 42.1577L93.2075 49.8276L99.1314 49.3827L98.7498 45.4099Z" fill="#FFD0A6"/>
<path d="M43.2601 271L40.7752 277.451C38.7917 279.636 36.8436 282.122 39.7679 281.762L43.5885 284.97C44.131 285.544 44.5244 286.243 44.7341 287.006C44.9438 287.769 44.9633 288.571 44.791 289.343C44.0589 292.617 41.7869 292.795 41.7869 292.795L35.0021 295.055C34.2794 295.291 33.5097 295.343 32.7618 295.208C32.0139 295.073 31.3109 294.755 30.7156 294.281C27.6284 291.859 25.0534 288.845 23.1409 285.415L16.6757 273.79C16.1868 272.912 15.9105 271.931 15.8688 270.926C15.8271 269.921 16.0213 268.921 16.4357 268.005C16.8501 267.089 17.4732 266.284 18.2548 265.653C19.0363 265.023 19.9545 264.585 20.9356 264.376L23.1809 258.837L43.2601 271Z" fill="#281A10"/>
<defs>
<linearGradient id="paint0_linear_70_573" x1="17.4521" y1="272.557" x2="302.533" y2="272.557" gradientUnits="userSpaceOnUse">
<stop stop-color="#2E256B"/>
<stop offset="1" stop-color="#5A3087"/>
</linearGradient>
<linearGradient id="paint1_linear_70_573" x1="0" y1="185.052" x2="302.533" y2="185.052" gradientUnits="userSpaceOnUse">
<stop stop-color="#6A5EBF"/>
<stop offset="1" stop-color="#6E3AA5"/>
</linearGradient>
<linearGradient id="paint2_linear_70_573" x1="215.751" y1="65.817" x2="321.973" y2="65.817" gradientUnits="userSpaceOnUse">
<stop stop-color="#2E256B"/>
<stop offset="1" stop-color="#5A3087"/>
</linearGradient>
<linearGradient id="paint3_linear_70_573" x1="203.016" y1="34.2254" x2="322" y2="34.2254" gradientUnits="userSpaceOnUse">
<stop stop-color="#6A5EBF"/>
<stop offset="1" stop-color="#6E3AA5"/>
</linearGradient>
<linearGradient id="paint4_linear_70_573" x1="203.016" y1="74.8794" x2="215.751" y2="74.8794" gradientUnits="userSpaceOnUse">
<stop stop-color="#6A5EBF"/>
<stop offset="1" stop-color="#6E3AA5"/>
</linearGradient>
<linearGradient id="paint5_linear_70_573" x1="289.407" y1="81.2812" x2="302.498" y2="81.2812" gradientUnits="userSpaceOnUse">
<stop stop-color="#2E256B"/>
<stop offset="1" stop-color="#5A3087"/>
</linearGradient>
<linearGradient id="paint6_linear_70_573" x1="14.8696" y1="177.636" x2="78.6661" y2="177.636" gradientUnits="userSpaceOnUse">
<stop stop-color="#2E256B"/>
<stop offset="1" stop-color="#5A3087"/>
</linearGradient>
<linearGradient id="paint7_linear_70_573" x1="29.8364" y1="210.887" x2="66.3068" y2="216.525" gradientUnits="userSpaceOnUse">
<stop stop-color="#2E256B"/>
<stop offset="1" stop-color="#5A3087"/>
</linearGradient>
<linearGradient id="paint8_linear_70_573" x1="28.7311" y1="210.049" x2="59.8862" y2="214.865" gradientUnits="userSpaceOnUse">
<stop stop-color="#6A5EBF"/>
<stop offset="1" stop-color="#6E3AA5"/>
</linearGradient>
<linearGradient id="paint9_linear_70_573" x1="16.8621" y1="116.321" x2="100.68" y2="116.321" gradientUnits="userSpaceOnUse">
<stop stop-color="#2E256B"/>
<stop offset="1" stop-color="#5A3087"/>
</linearGradient>
<linearGradient id="paint10_linear_70_573" x1="80.6097" y1="119.64" x2="154.901" y2="119.64" gradientUnits="userSpaceOnUse">
<stop stop-color="#6A5EBF"/>
<stop offset="1" stop-color="#6E3AA5"/>
</linearGradient>
<linearGradient id="paint11_linear_70_573" x1="67.1421" y1="60.4961" x2="86.4359" y2="60.4961" gradientUnits="userSpaceOnUse">
<stop stop-color="#6A5EBF"/>
<stop offset="1" stop-color="#6E3AA5"/>
</linearGradient>
</defs>
</svg>
