<svg width="28" height="20" viewBox="0 0 28 20" fill="none" xmlns="http://www.w3.org/2000/svg">
<path d="M12.2815 12.1388H11.0958V10.953C11.0958 10.4999 10.7285 10.1326 10.2755 10.1326C9.82238 10.1326 9.45506 10.4999 9.45506 10.953V12.1388H8.26932C7.81625 12.1388 7.44893 12.5061 7.44893 12.9592V16.9713C7.44893 17.4243 7.81625 17.7916 8.26932 17.7916H9.45506V19.0443C9.45506 19.4974 9.82238 19.8647 10.2755 19.8647C10.7285 19.8647 11.0958 19.4974 11.0958 19.0443V17.7916H12.2815C12.7346 17.7916 13.1019 17.4243 13.1019 16.9713V12.9592C13.1019 12.5061 12.7346 12.1388 12.2815 12.1388ZM19.7306 8.1264H18.5449V6.94061C18.5449 6.48754 18.1776 6.12022 17.7245 6.12022C17.2714 6.12022 16.9041 6.48754 16.9041 6.94061V8.1264H15.7184C15.2653 8.1264 14.898 8.49372 14.898 8.94679V12.9588C14.898 13.4119 15.2653 13.7792 15.7184 13.7792H16.9041V19.0444C16.9041 19.4975 17.2714 19.8648 17.7245 19.8648C18.1776 19.8648 18.5449 19.4975 18.5449 19.0444V13.7792H19.7306C20.1836 13.7792 20.551 13.4119 20.551 12.9588V8.94679C20.551 8.49372 20.1836 8.1264 19.7306 8.1264ZM27.1796 2.14143H25.9939V0.955584C25.9939 0.502509 25.6266 0.135193 25.1735 0.135193C24.7204 0.135193 24.3531 0.502509 24.3531 0.955584V2.14138H23.1674C22.7143 2.14138 22.347 2.50869 22.347 2.96177V8.94674C22.347 9.39981 22.7143 9.76713 23.1674 9.76713H24.3531V13.0256C24.3531 13.4787 24.7204 13.846 25.1735 13.846C25.6266 13.846 25.9939 13.4787 25.9939 13.0256V9.76713H27.1796C27.6327 9.76713 28 9.39981 28 8.94674V2.96182C28 2.50875 27.6327 2.14143 27.1796 2.14143ZM4.83254 6.05355H3.64691V0.955639C3.64691 0.502564 3.2796 0.135248 2.82652 0.135248C2.37345 0.135248 2.00613 0.502564 2.00613 0.955639V6.05355H0.820391C0.367316 6.05355 0 6.42086 0 6.87394V13.0257C0 13.4787 0.367316 13.8461 0.820391 13.8461H2.00613V15.0319C2.00613 15.4849 2.37345 15.8522 2.82652 15.8522C3.2796 15.8522 3.64691 15.4849 3.64691 15.0319V13.8461H4.8326C5.28567 13.8461 5.65299 13.4787 5.65299 13.0257V6.87394C5.65293 6.42086 5.28567 6.05355 4.83254 6.05355Z" fill="white"/>
</svg>
